HIERARCHY
ROOT Scene_Root
{
	OFFSET 0 0 0
	CHANNELS 6 Xposition Yposition Zposition Zrotation Xrotation Yrotation
	JOINT Main__Hips_
	{
		OFFSET 0 1.05 0
		CHANNELS 3 Zrotation Xrotation Yrotation
		JOINT LeftUpperLeg
		{
			OFFSET 0.1 -0.05 0
			CHANNELS 3 Zrotation Xrotation Yrotation
			JOINT LeftLowerLeg
			{
				OFFSET 0.013 -0.419986 0.028
				CHANNELS 3 Zrotation Xrotation Yrotation
				JOINT LeftFoot
				{
					OFFSET -0.013 -0.45 -0.028
					CHANNELS 3 Zrotation Xrotation Yrotation
					JOINT LeftToes
					{
						OFFSET 0 -0.095 0.09
						CHANNELS 3 Zrotation Xrotation Yrotation
						End Site
						{
							OFFSET 0 0 0
						}
					}
				}
			}
		}
		JOINT RightUpperLeg
		{
			OFFSET -0.1 -0.05 0
			CHANNELS 3 Zrotation Xrotation Yrotation
			JOINT RightLowerLeg
			{
				OFFSET -0.023 -0.419986 0.028
				CHANNELS 3 Zrotation Xrotation Yrotation
				JOINT RightFoot
				{
					OFFSET 0.013 -0.45 -0.028
					CHANNELS 3 Zrotation Xrotation Yrotation
					JOINT RightToes
					{
						OFFSET 0 -0.095 0.09
						CHANNELS 3 Zrotation Xrotation Yrotation
						End Site
						{
							OFFSET 0 0 0
						}
					}
				}
			}
		}
		JOINT LowerBack
		{
			OFFSET 0 0.09 0
			CHANNELS 3 Zrotation Xrotation Yrotation
			JOINT Back
			{
				OFFSET 0 0.14 0
				CHANNELS 3 Zrotation Xrotation Yrotation
				JOINT Chest
				{
					OFFSET 0 0.18 0
					CHANNELS 3 Zrotation Xrotation Yrotation
					JOINT Neck
					{
						OFFSET 0 0.21 -0.027
						CHANNELS 3 Zrotation Xrotation Yrotation
						End Site
						{
							OFFSET 0 0 0
						}
					}
					JOINT LeftUpperArm
					{
						OFFSET 0.195 0.11 -0.045
						CHANNELS 3 Zrotation Xrotation Yrotation
						JOINT LeftLowerArm
						{
							OFFSET 0.34 -0.005 0.015
							CHANNELS 3 Zrotation Xrotation Yrotation
							JOINT LeftHand
							{
								OFFSET 0.225 -0.005 -0.01
								CHANNELS 3 Zrotation Xrotation Yrotation
								JOINT LTumb1
								{
									OFFSET 0.052905 0.052523 -0.006921
									CHANNELS 3 Zrotation Xrotation Yrotation
									JOINT LTumb2
									{
										OFFSET 0.028633 0.027375 0.00264
										CHANNELS 3 Zrotation Xrotation Yrotation
										End Site
										{
											OFFSET 0 0 0
										}
									}
								}
								JOINT LForeFinger1
								{
									OFFSET 0.114668 0.0362819 -0.003648
									CHANNELS 3 Zrotation Xrotation Yrotation
									JOINT LForeFinger2
									{
										OFFSET 0.029629 0.00689304 0.003865
										CHANNELS 3 Zrotation Xrotation Yrotation
										JOINT LForeFinger3
										{
											OFFSET 0.024014 0.00504696 0.00243
											CHANNELS 3 Zrotation Xrotation Yrotation
											End Site
											{
												OFFSET 0 0 0
											}
										}
									}
								}
								JOINT LMiddleFinger1
								{
									OFFSET 0.119962 0.00615799 -0.005816
									CHANNELS 3 Zrotation Xrotation Yrotation
									JOINT LMiddleFinger2
									{
										OFFSET 0.032236 0.00534105 0.003127
										CHANNELS 3 Zrotation Xrotation Yrotation
										JOINT LMiddleFinger3
										{
											OFFSET 0.028348 0.00342798 0.000117
											CHANNELS 3 Zrotation Xrotation Yrotation
											End Site
											{
												OFFSET 0 0 0
											}
										}
									}
								}
								JOINT LRingFinger1
								{
									OFFSET 0.120105 -0.023402 -0.005103
									CHANNELS 3 Zrotation Xrotation Yrotation
									JOINT LRingFinger2
									{
										OFFSET 0.028485 -0.00253105 0.003225
										CHANNELS 3 Zrotation Xrotation Yrotation
										JOINT LRingFinger3
										{
											OFFSET 0.025048 -0.00224495 0.000980001
											CHANNELS 3 Zrotation Xrotation Yrotation
											End Site
											{
												OFFSET 0 0 0
											}
										}
									}
								}
								JOINT LLittleFinger1
								{
									OFFSET 0.108843 -0.0534641 -0.007054
									CHANNELS 3 Zrotation Xrotation Yrotation
									JOINT LLittleFinger2
									{
										OFFSET 0.015333 -0.00509405 0.006821
										CHANNELS 3 Zrotation Xrotation Yrotation
										JOINT LLittleFinger3
										{
											OFFSET 0.022252 -0.00760102 0.003227
											CHANNELS 3 Zrotation Xrotation Yrotation
											End Site
											{
												OFFSET 0 0 0
											}
										}
									}
								}
							}
						}
					}
					JOINT RightUpperArm
					{
						OFFSET -0.195 0.11 -0.045
						CHANNELS 3 Zrotation Xrotation Yrotation
						JOINT RightLowerArm
						{
							OFFSET -0.34 -0.005 0.015
							CHANNELS 3 Zrotation Xrotation Yrotation
							JOINT RightHand
							{
								OFFSET -0.225 -0.005 -0.01
								CHANNELS 3 Zrotation Xrotation Yrotation
								JOINT RTumb1
								{
									OFFSET -0.052906 0.052523 -0.006921
									CHANNELS 3 Zrotation Xrotation Yrotation
									JOINT RTumb2
									{
										OFFSET -0.028633 0.027375 0.00264
										CHANNELS 3 Zrotation Xrotation Yrotation
										End Site
										{
											OFFSET 0 0 0
										}
									}
								}
								JOINT RForeFinger1
								{
									OFFSET -0.114668 0.0362819 -0.003648
									CHANNELS 3 Zrotation Xrotation Yrotation
									JOINT RForeFinger2
									{
										OFFSET -0.029629 0.00689304 0.003865
										CHANNELS 3 Zrotation Xrotation Yrotation
										JOINT RForeFinger3
										{
											OFFSET -0.024014 0.00504696 0.00243
											CHANNELS 3 Zrotation Xrotation Yrotation
											End Site
											{
												OFFSET 0 0 0
											}
										}
									}
								}
								JOINT RMiddleFinger1
								{
									OFFSET -0.119962 0.00615704 -0.005816
									CHANNELS 3 Zrotation Xrotation Yrotation
									JOINT RMiddleFinger2
									{
										OFFSET -0.032236 0.00534105 0.003127
										CHANNELS 3 Zrotation Xrotation Yrotation
										JOINT RMiddleFinger3
										{
											OFFSET -0.028348 0.00342798 0.000117
											CHANNELS 3 Zrotation Xrotation Yrotation
											End Site
											{
												OFFSET 0 0 0
											}
										}
									}
								}
								JOINT RRingFinger1
								{
									OFFSET -0.120105 -0.023402 -0.005103
									CHANNELS 3 Zrotation Xrotation Yrotation
									JOINT RRingFinger2
									{
										OFFSET -0.028485 -0.00253105 0.003225
										CHANNELS 3 Zrotation Xrotation Yrotation
										JOINT RRingFinger3
										{
											OFFSET -0.025048 -0.00224602 0.000980001
											CHANNELS 3 Zrotation Xrotation Yrotation
											End Site
											{
												OFFSET 0 0 0
											}
										}
									}
								}
								JOINT RLittleFinger1
								{
									OFFSET -0.108843 -0.0534641 -0.007054
									CHANNELS 3 Zrotation Xrotation Yrotation
									JOINT RLittleFinger2
									{
										OFFSET -0.015333 -0.00509405 0.006821
										CHANNELS 3 Zrotation Xrotation Yrotation
										JOINT RLittleFinger3
										{
											OFFSET -0.022252 -0.00760102 0.003227
											CHANNELS 3 Zrotation Xrotation Yrotation
											End Site
											{
												OFFSET 0 0 0
											}
										}
									}
								}
							}
						}
					}
				}
			}
		}
	}
}
MOTION
Frames: 21
Frame Time: 0.200000
0 0 0 0 0 0 0 0 0 0 0 0 0 0 0 0 0 0 0 0 0 0 0 0 0 0 0 0 0 0 0 0 0 0 0 0 0 50 0 0 0 0 0 -9 0 -3.41396 -47.0153 -47.7361 47.6376 4.09666 -89.5069 -0.0219418 41.6382 1.16157 -2.23743 -0.449856 -1.02946 -1.1177 -0.229956 -0.512532 0 0 0 0 0 0 0 0 0 0 0 0 0 0 0 0 0 0 0 0 0 0 0 0 0 0 0 0 0 0 0 0 0 0 0 0 11.3598 -48.829 42.1183 -55.1365 -0.370102 94.9821 0 50 0 2.16457 -0.348366 1.20806 0 0 0 0 0 0 0 0 0 0 0 0 0 0 0 0 0 0 0 0 0 -1.07941 0.191215 -0.598881 0 0 0 0 0 0 -4.30508 0.831901 -2.37256 0 0 0 0 0 0 
0 0 0 0 0 0 0 0 0 0 0 0 0 0 0 0 0 0 0 0 0 0 0 0 0 0 0 0 0 0 0 0 0 0 0 0 0 50 0 0 0 0 0 -13.5 0 -2.81283 -47.8329 -52.3085 46.5431 10.0962 -82.7482 -0.0258055 41.7747 1.25974 -2.34417 -0.470271 -1.07891 -1.17097 -0.240656 -0.537049 0 0 0 0 0 0 0 0 0 0 0 0 0 0 0 0 0 0 0 0 0 0 0 0 0 0 0 0 0 0 0 0 0 0 0 0 10.8723 -49.0208 48.3146 -55.0901 7.33564 87.8416 0 50 0 2.26782 -0.363814 1.26591 0 0 0 0 0 0 0 0 0 0 0 0 0 0 0 0 0 0 0 0 0 -1.13076 0.200601 -0.627308 0 0 0 0 0 0 -4.50921 0.875934 -2.48393 0 0 0 0 0 0 
0 0 0 0 0 0 0 0 0 0 0 0 0 0 0 0 0 0 0 0 0 0 0 0 0 0 0 0 0 0 0 0 0 0 0 0 0 50 0 0 0 0 0 -18 0 -2.30251 -48.6806 -56.9427 44.6972 15.9221 -75.7088 -0.0299917 41.9112 1.35813 -2.45094 -0.490594 -1.12841 -1.22425 -0.251334 -0.561577 0 0 0 0 0 0 0 0 0 0 0 0 0 0 0 0 0 0 0 0 0 0 0 0 0 0 0 0 0 0 0 0 0 0 0 0 10.4173 -49.2461 54.5343 -54.0541 14.9743 80.5031 0 50 0 2.37109 -0.379157 1.32378 0 0 0 0 0 0 0 0 0 0 0 0 0 0 0 0 0 0 0 0 0 -1.18211 0.210013 -0.655727 0 0 0 0 0 0 -4.71326 0.920363 -2.59514 0 0 0 0 0 0 
0 0 0 0 0 0 0 0 0 0 0 0 0 0 0 0 0 0 0 0 0 0 0 0 0 0 0 0 0 0 0 0 0 0 0 0 0 50 0 0 0 0 0 -22.5 0 -1.89053 -49.553 -61.6463 42.0368 21.4746 -68.2314 -0.0345025 42.0477 1.45674 -2.55772 -0.510825 -1.17794 -1.27753 -0.261988 -0.586114 0 0 0 0 0 0 0 0 0 0 0 0 0 0 0 0 0 0 0 0 0 0 0 0 0 0 0 0 0 0 0 0 0 0 0 0 10.0003 -49.5025 60.7817 -51.9276 22.4128 72.6824 0 50 0 2.47438 -0.394396 1.38169 0 0 0 0 0 0 0 0 0 0 0 0 0 0 0 0 0 0 0 0 0 -1.23345 0.21945 -0.684138 0 0 0 0 0 0 -4.91723 0.965188 -2.7062 0 0 0 0 0 0 
0 0 0 0 0 0 0 0 0 0 0 0 0 0 0 0 0 0 0 0 0 0 0 0 0 0 0 0 0 0 0 0 0 0 0 0 0 50 0 0 0 0 0 -27 0 -1.39307 -48.4816 -66.2437 38.48 26.6356 -60.1564 -0.03934 42.1842 1.55558 -2.66452 -0.530963 -1.22751 -1.33082 -0.27262 -0.610661 0 0 0 0 0 0 0 0 0 0 0 0 0 0 0 0 0 0 0 0 0 0 0 0 0 0 0 0 0 0 0 0 0 0 0 0 9.09946 -47.8851 66.4497 -48.5277 29.4878 64.0537 0 50 0 2.57768 -0.40953 1.43962 0 0 0 0 0 0 0 0 0 0 0 0 0 0 0 0 0 0 0 0 0 -1.28479 0.228913 -0.71254 0 0 0 0 0 0 -5.12111 1.01041 -2.81709 0 0 0 0 0 0 
0 0 0 0 0 0 0 0 0 0 0 0 0 0 0 0 0 0 0 0 0 0 0 0 0 0 0 0 0 0 0 0 0 0 0 0 0 50 0 0 0 0 0 -31.5 0 -0.780274 -47.4395 -70.7616 33.9421 31.2642 -51.3339 -0.0445063 42.3206 1.65465 -2.77134 -0.551009 -1.27711 -1.38412 -0.283229 -0.635219 0 0 0 0 0 0 0 0 0 0 0 0 0 0 0 0 0 0 0 0 0 0 0 0 0 0 0 0 0 0 0 0 0 0 0 0 7.99793 -46.3335 71.9874 -43.5931 35.9836 54.2421 0 50 0 2.681 -0.42456 1.49757 0 0 0 0 0 0 0 0 0 0 0 0 0 0 0 0 0 0 0 0 0 -1.33612 0.238402 -0.740934 0 0 0 0 0 0 -5.3249 1.05602 -2.92783 0 0 0 0 0 0 
0 0 0 0 0 0 0 0 0 0 0 0 0 0 0 0 0 0 0 0 0 0 0 0 0 0 0 0 0 0 0 0 0 0 0 0 0 50 0 0 0 0 0 -36 0 -0.0618432 -46.4326 -75.2097 28.3671 35.1949 -41.652 -0.0500039 42.4571 1.75395 -2.87817 -0.570963 -1.32675 -1.43741 -0.293816 -0.659786 0 0 0 0 0 0 0 0 0 0 0 0 0 0 0 0 0 0 0 0 0 0 0 0 0 0 0 0 0 0 0 0 0 0 0 0 6.71942 -44.8606 77.4187 -36.825 41.608 42.8559 0 50 0 2.78433 -0.439486 1.55556 0 0 0 0 0 0 0 0 0 0 0 0 0 0 0 0 0 0 0 0 0 -1.38745 0.247915 -0.769319 0 0 0 0 0 0 -5.52861 1.10203 -3.03841 0 0 0 0 0 0 
0 0 0 0 0 0 0 0 0 0 0 0 0 0 0 0 0 0 0 0 0 0 0 0 0 0 0 0 0 0 0 0 0 0 0 0 0 50 0 0 0 0 0 -40.5 0 0.753143 -45.4666 -79.5968 21.7777 38.245 -31.0846 -0.0558345 42.5935 1.85349 -2.98502 -0.590823 -1.37643 -1.49072 -0.304379 -0.684363 0 0 0 0 0 0 0 0 0 0 0 0 0 0 0 0 0 0 0 0 0 0 0 0 0 0 0 0 0 0 0 0 0 0 0 0 5.28495 -43.4782 82.7639 -28.0228 45.981 29.6157 0 50 0 2.88768 -0.454307 1.61357 0 0 0 0 0 0 0 0 0 0 0 0 0 0 0 0 0 0 0 0 0 -1.43877 0.257454 -0.797695 0 0 0 0 0 0 -5.73223 1.14843 -3.14882 0 0 0 0 0 0 
0 0 0 0 0 0 0 0 0 0 0 0 0 0 0 0 0 0 0 0 0 0 0 0 0 0 0 0 0 0 0 0 0 0 0 0 0 50 0 0 0 0 0 -45 0 1.65617 -44.5463 -83.9312 14.3337 40.2357 -19.7478 -0.0620009 42.73 1.95327 -3.09189 -0.610592 -1.42615 -1.54402 -0.31492 -0.708949 0 0 0 0 0 0 0 0 0 0 0 0 0 0 0 0 0 0 0 0 0 0 0 0 0 0 0 0 0 0 0 0 0 0 0 0 3.71332 -42.197 88.04 -17.3572 48.6722 14.6239 0 50 0 2.99104 -0.469023 1.67161 0 0 0 0 0 0 0 0 0 0 0 0 0 0 0 0 0 0 0 0 0 -1.49009 0.267019 -0.826064 0 0 0 0 0 0 -5.93577 1.19522 -3.25907 0 0 0 0 0 0 
0 0 0 0 0 0 0 1.5 0 0 0 0 0 0 0 0 0 0 0 0 0 0 0 0 0 0 0 0 0 0 0 0 0 0 5 0 0 49 0 0 0 0 0 -45 0 11.1299 -43.3041 -70.7769 23.303 31.7856 -23.5845 -0.0685048 42.8664 2.05328 -3.19878 -0.630267 -1.47591 -1.59733 -0.325437 -0.733546 0 0 0 0 0 0 0 0 0 0 0 0 0 0 0 0 0 0 0 0 0 0 0 0 0 0 0 0 0 0 0 0 0 0 0 0 -3.68127 -41.9053 74.7673 -30.0942 38.6594 24.2343 0 50 0 3.09442 -0.483634 1.72968 0 0 0 0 0 0 0 0 0 0 0 0 0 0 0 0 0 0 0 0 0 -1.5414 0.276609 -0.854423 0 0 0 0 0 0 -6.13922 1.24241 -3.36915 0 0 0 0 0 0 
0 0 0 0 0 0 0 3 0 0 0 0 0 0 0 0 0 0 0 0 0 0 0 0 0 0 0 0 0 0 0 0 0 0 9.99999 0 0 48 0 0 0 0 0 -45 0 19.7091 -40.5862 -58.4608 30.9709 22.9776 -25.6675 -0.0753492 43.0029 2.15354 -3.30568 -0.649849 -1.5257 -1.65065 -0.335932 -0.758152 0 0 0 0 0 0 0 0 0 0 0 0 0 0 0 0 0 0 0 0 0 0 0 0 0 0 0 0 0 0 0 0 0 0 0 0 -10.6942 -40.3749 61.8337 -39.3818 27.5195 30.1002 0 50 0 3.19781 -0.498141 1.78777 0 0 0 0 0 0 0 0 0 0 0 0 0 0 0 0 0 0 0 0 0 -1.59271 0.286224 -0.882774 0 0 0 0 0 0 -6.34258 1.28998 -3.47907 0 0 0 0 0 0 
0 0 0 0 0 0 0 4.5 0 0 0 0 0 0 0 0 0 0 0 0 0 0 0 0 0 0 0 0 0 0 0 0 0 0 15 0 0 47 0 0 0 0 0 -45 0 26.9974 -36.6287 -47.3326 37.9178 14.0067 -26.422 -0.0825357 43.1393 2.25404 -3.41261 -0.669339 -1.57553 -1.70397 -0.346404 -0.782769 0 0 0 0 0 0 0 0 0 0 0 0 0 0 0 0 0 0 0 0 0 0 0 0 0 0 0 0 0 0 0 0 0 0 0 0 -16.9023 -37.7302 49.6029 -46.7482 15.7914 33.5998 0 50 0 3.30122 -0.512543 1.84589 0 0 0 0 0 0 0 0 0 0 0 0 0 0 0 0 0 0 0 0 0 -1.64401 0.295865 -0.911117 0 0 0 0 0 0 -6.54586 1.33794 -3.58882 0 0 0 0 0 0 
0 0 0 0 0 0 0 6 0 0 0 0 0 0 0 0 0 0 0 0 0 0 0 0 0 0 0 0 0 0 0 0 0 0 20 0 0 46 0 0 0 0 0 -45 0 32.8928 -31.7001 -37.4429 44.5658 5.01405 -26.0669 -0.0900671 43.2757 2.3548 -3.51954 -0.688736 -1.62539 -1.7573 -0.356853 -0.807394 0 0 0 0 0 0 0 0 0 0 0 0 0 0 0 0 0 0 0 0 0 0 0 0 0 0 0 0 0 0 0 0 0 0 0 0 -22.064 -34.1566 38.2542 -53.1328 3.76044 35.4545 0 50 0 3.40464 -0.526839 1.90403 0 0 0 0 0 0 0 0 0 0 0 0 0 0 0 0 0 0 0 0 0 -1.69531 0.305531 -0.939451 0 0 0 0 0 0 -6.74904 1.38629 -3.6984 0 0 0 0 0 0 
0 0 0 0 0 0 0 7.49999 0 0 0 0 0 0 0 0 0 0 0 0 0 0 0 0 0 0 0 0 0 0 0 0 0 0 25 0 0 45 0 0 0 0 0 -45 0 37.4763 -26.0466 -28.652 51.2589 -3.87736 -24.6755 -0.0979456 43.4121 2.4558 -3.6265 -0.708039 -1.67529 -1.81063 -0.367279 -0.83203 0 0 0 0 0 0 0 0 0 0 0 0 0 0 0 0 0 0 0 0 0 0 0 0 0 0 0 0 0 0 0 0 0 0 0 0 -26.106 -29.8577 27.7936 -59.1797 -8.3971 35.9718 0 50 0 3.50808 -0.541031 1.9622 0 0 0 0 0 0 0 0 0 0 0 0 0 0 0 0 0 0 0 0 0 -1.74661 0.315223 -0.967776 0 0 0 0 0 0 -6.95214 1.43504 -3.80782 0 0 0 0 0 0 
0 0 0 0 0 0 0 8.99999 0 0 0 0 0 0 0 0 0 0 0 0 0 0 0 0 0 0 0 0 0 0 0 0 0 0 30 0 0 44 0 0 0 0 0 -45 0 39.897 -17.2673 -23.0034 61.9559 -11.9982 -18.1708 -0.106174 43.5485 2.55706 -3.73347 -0.727249 -1.72523 -1.86396 -0.377682 -0.856676 0 0 0 0 0 0 0 0 0 0 0 0 0 0 0 0 0 0 0 0 0 0 0 0 0 0 0 0 0 0 0 0 0 0 0 0 -26.3918 -15.9615 23.1206 -74.5559 -20.0604 25.581 0 50 0 3.61153 -0.555118 2.0204 0 0 0 0 0 0 0 0 0 0 0 0 0 0 0 0 0 0 0 0 0 -1.79789 0.32494 -0.996092 0 0 0 0 0 0 -7.15515 1.48416 -3.91706 0 0 0 0 0 0 
0 0 0 0 0 0 0 10.5 0 0 0 0 0 0 0 0 0 0 0 0 0 0 0 0 0 0 0 0 0 0 0 0 0 0 35 0 0 43 0 0 0 0 0 -45 0 41.3536 -8.31691 -17.9274 73.9302 -18.6966 -9.9659 -0.114754 43.6849 2.65857 -3.84047 -0.746366 -1.7752 -1.9173 -0.388062 -0.881331 0 0 0 0 0 0 0 0 0 0 0 0 0 0 0 0 0 0 0 0 0 0 0 0 0 0 0 0 0 0 0 0 0 0 0 0 -25.5442 -2.08793 18.6936 -93.2533 -28.2708 11.2798 0 50 0 3.715 -0.5691 2.07862 0 0 0 0 0 0 0 0 0 0 0 0 0 0 0 0 0 0 0 0 0 -1.84918 0.334682 -1.0244 0 0 0 0 0 0 -7.35807 1.53368 -4.02613 0 0 0 0 0 0 
0 0 0 0 0 0 0 12 0 0 0 0 0 0 0 0 0 0 0 0 0 0 0 0 0 0 0 0 0 0 0 0 0 0 40 0 0 42 0 0 0 0 0 -45 0 42.001 0.722259 -13.1318 87.2815 -23.4976 -0.117411 -0.123688 43.8213 2.76035 -3.94747 -0.76539 -1.82521 -1.97064 -0.398419 -0.905995 0 0 0 0 0 0 0 0 0 0 0 0 0 0 0 0 0 0 0 0 0 0 0 0 0 0 0 0 0 0 0 0 0 0 0 0 -23.5987 11.6755 13.9689 -114.77 -31.4777 -6.10759 0 50 0 3.81848 -0.582977 2.13686 0 0 0 0 0 0 0 0 0 0 0 0 0 0 0 0 0 0 0 0 0 -1.90046 0.344449 -1.0527 0 0 0 0 0 0 -7.5609 1.58358 -4.13502 0 0 0 0 0 0 
0 0 0 0 0 0 0 13.5 0 0 0 0 0 0 0 0 0 0 0 0 0 0 0 0 0 0 0 0 0 0 0 0 0 0 45 0 0 41 0 0 0 0 0 -45 0 41.8919 9.78377 -8.36933 101.728 -25.9468 10.9717 -0.13298 43.9576 2.86238 -4.0545 -0.78432 -1.87525 -2.02399 -0.408754 -0.93067 0 0 0 0 0 0 0 0 0 0 0 0 0 0 0 0 0 0 0 0 0 0 0 0 0 0 0 0 0 0 0 0 0 0 0 0 -22.7505 18.068 9.01395 -126.62 -31.8763 -13.5525 0 50 0 3.92198 -0.596748 2.19514 0 0 0 0 0 0 0 0 0 0 0 0 0 0 0 0 0 0 0 0 0 -1.95173 0.354242 -1.08099 0 0 0 0 0 0 -7.76364 1.63386 -4.24374 0 0 0 0 0 0 
0 0 0 0 0 0 0 15 0 0 0 0 0 0 0 0 0 0 0 0 0 0 0 0 0 0 0 0 0 0 0 0 0 0 50 0 0 40 0 0 0 0 0 -45 0 40.9872 18.8035 -3.39278 116.56 -25.7627 22.4885 -0.142631 44.094 2.96469 -4.16154 -0.803157 -1.92534 -2.07734 -0.419065 -0.955354 0 0 0 0 0 0 0 0 0 0 0 0 0 0 0 0 0 0 0 0 0 0 0 0 0 0 0 0 0 0 0 0 0 0 0 0 -21.2636 24.3622 3.73814 -138.399 -30.9676 -20.9151 0 50 0 4.02549 -0.610414 2.25343 0 0 0 0 0 0 0 0 0 0 0 0 0 0 0 0 0 0 0 0 0 -2.003 0.36406 -1.10927 0 0 0 0 0 0 -7.96628 1.68453 -4.35229 0 0 0 0 0 0 
0 0 0 0 0 0 0 15 0 0 -3.5 0 0 12.5 0 0 -0.999999 0 0 -3.5 0 0 0 0 0 0 0 0 0 0 0 0 0 0 50.5 0 0 41 0 0 0 0 0 -45 0 38.8191 16.5452 -5.3742 106.26 -27.744 16.9584 -8.10654 39.9639 15.1979 -4.2686 -0.8219 -1.97545 -2.1307 -0.429353 -0.980048 0 0 0 0 0 0 0 0 0 0 0 0 0 0 0 0 0 0 0 0 0 0 0 0 0 0 0 0 0 0 0 0 0 0 0 0 -21.8452 21.7035 6.32512 -124.723 -32.1715 -15.5584 9.86892 45.2018 -14.4146 4.12901 -0.623975 2.31175 0 0 0 0 0 0 0 0 0 0 0 0 0 0 0 0 0 0 0 0 0 -2.05427 0.373904 -1.13754 0 0 0 0 0 0 -8.16884 1.73558 -4.46065 0 0 0 0 0 0 
0 0 0 0 0 0 0 15 0 0 -7.00001 0 0 25 0 0 -2 0 0 -7.00001 0 0 0 0 0 0 0 0 0 0 0 0 0 0 51 0 0 42 0 0 0 0 0 -45 0 36.5947 14.3609 -7.42125 95.645 -28.7955 11.0364 -14.3671 34.7423 25.8959 -4.37568 -0.840549 -2.0256 -2.18406 -0.439618 -1.00475 0 0 0 0 0 0 0 0 0 0 0 0 0 0 0 0 0 0 0 0 0 0 0 0 0 0 0 0 0 0 0 0 0 0 0 0 -22.2894 19.0236 8.83908 -110.878 -32.2543 -9.98054 17.1247 39.0159 -26.4027 4.23255 -0.63743 2.3701 0 0 0 0 0 0 0 0 0 0 0 0 0 0 0 0 0 0 0 0 0 -2.10553 0.383772 -1.16581 0 0 0 0 0 0 -8.37131 1.78702 -4.56884 0 0 0 0 0 0 
